<svg width="50" height="50" viewBox="0 0 50 50" fill="none" xmlns="http://www.w3.org/2000/svg">
<circle cx="25" cy="25" r="24.5" stroke="white"/>
<path d="M32.9842 25.8525C32.9214 25.66 32.8059 25.4889 32.6508 25.3587C32.4957 25.2285 32.3072 25.1443 32.1067 25.1158L27.8708 24.4983L25.975 20.6417C25.8863 20.4585 25.7478 20.304 25.5753 20.196C25.4029 20.0879 25.2035 20.0305 25 20.0305C24.7965 20.0305 24.5971 20.0879 24.4247 20.196C24.2522 20.304 24.1137 20.4585 24.025 20.6417L22.1292 24.4983L17.8933 25.0833C17.694 25.1123 17.5067 25.1962 17.3525 25.3257C17.1983 25.4552 17.0832 25.6252 17.0202 25.8165C16.9572 26.0077 16.9487 26.2128 16.9958 26.4086C17.0429 26.6044 17.1436 26.7833 17.2867 26.925L20.3633 29.9583L19.6375 34.205C19.616 34.3995 19.6475 34.5962 19.7288 34.7742C19.8101 34.9523 19.9381 35.1049 20.0992 35.216C20.2603 35.3272 20.4485 35.3925 20.6438 35.4053C20.8391 35.418 21.0342 35.3776 21.2083 35.2883L25 33.3383L26.7658 34.27C26.8282 34.3037 26.8967 34.3245 26.9673 34.3313C27.0379 34.3381 27.1091 34.3306 27.1768 34.3094C27.2444 34.2882 27.3071 34.2537 27.3612 34.2078C27.4153 34.162 27.4597 34.1058 27.4917 34.0425C27.5257 33.9808 27.5472 33.9129 27.5547 33.8427C27.5623 33.7726 27.5558 33.7017 27.5356 33.6341C27.5154 33.5666 27.482 33.5037 27.4372 33.4492C27.3925 33.3947 27.3373 33.3496 27.275 33.3167L25.5092 32.385C25.3524 32.3015 25.1776 32.2579 25 32.2579C24.8224 32.2579 24.6476 32.3015 24.4908 32.385L20.6667 34.3783L21.3817 30.1425C21.4115 29.9709 21.3994 29.7947 21.3466 29.6287C21.2938 29.4628 21.2018 29.312 21.0783 29.1892L18.045 26.1667L22.2917 25.5492C22.4652 25.5231 22.6299 25.4552 22.7714 25.3515C22.9129 25.2477 23.0271 25.111 23.1042 24.9533L25 21.1183L26.8958 24.975C26.9729 25.1327 27.0871 25.2693 27.2286 25.3731C27.3701 25.4769 27.5348 25.5448 27.7083 25.5708L31.955 26.1883L28.8783 29.1892C28.7549 29.312 28.6628 29.4628 28.61 29.6287C28.5572 29.7947 28.5452 29.9709 28.575 30.1425L29.485 35.4617C29.5034 35.5889 29.5673 35.7052 29.6649 35.7889C29.7626 35.8726 29.8872 35.918 30.0158 35.9167H30.1025C30.1726 35.9062 30.2399 35.8817 30.3005 35.8448C30.361 35.8079 30.4135 35.7592 30.4549 35.7016C30.4963 35.6441 30.5257 35.5788 30.5415 35.5097C30.5573 35.4406 30.559 35.369 30.5467 35.2992L29.6367 29.9692L32.7133 26.9683C32.8585 26.8264 32.9609 26.6465 33.0087 26.4493C33.0566 26.252 33.0481 26.0452 32.9842 25.8525Z" fill="white"/>
<path d="M19.9517 24.2817C20.0229 24.2749 20.0922 24.2541 20.1553 24.2204C20.2185 24.1867 20.2744 24.1408 20.3197 24.0854C20.365 24.03 20.3989 23.9662 20.4194 23.8976C20.4399 23.829 20.4466 23.757 20.4392 23.6858L19.3775 13.1667H24.4583V17.37C24.4583 17.5137 24.5154 17.6514 24.617 17.753C24.7186 17.8546 24.8563 17.9117 25 17.9117C25.1437 17.9117 25.2814 17.8546 25.383 17.753C25.4846 17.6514 25.5417 17.5137 25.5417 17.37V13.1667H30.6333L29.81 23.74C29.8041 23.8106 29.8124 23.8817 29.8344 23.949C29.8564 24.0164 29.8916 24.0787 29.9381 24.1322C29.9845 24.1857 30.0412 24.2294 30.1048 24.2606C30.1684 24.2919 30.2376 24.3101 30.3083 24.3142V24.3142C30.4437 24.3144 30.574 24.263 30.6726 24.1704C30.7713 24.0777 30.8309 23.9509 30.8392 23.8158L31.6733 13.2533C31.6923 12.9524 31.591 12.6563 31.3917 12.43C31.2944 12.325 31.1773 12.2403 31.0472 12.1808C30.917 12.1213 30.7764 12.0882 30.6333 12.0833H19.3775C19.2263 12.0837 19.0769 12.1157 18.9388 12.1773C18.8008 12.2388 18.6771 12.3286 18.5758 12.4408C18.475 12.5533 18.3989 12.6856 18.3522 12.8293C18.3056 12.9729 18.2895 13.1248 18.305 13.275L19.3883 23.7942C19.3924 23.8635 19.4103 23.9313 19.4411 23.9936C19.4718 24.0558 19.5146 24.1113 19.5672 24.1568C19.6197 24.2022 19.6807 24.2367 19.7468 24.2581C19.8128 24.2796 19.8825 24.2876 19.9517 24.2817Z" fill="white"/>
</svg>
