<svg width="50" height="50" viewBox="0 0 50 50" fill="none" xmlns="http://www.w3.org/2000/svg">
<circle cx="25" cy="25" r="24.5" stroke="white"/>
<path d="M35.8333 17.4167H31.5C31.5 16.2674 31.0434 15.1652 30.2308 14.3525C29.4181 13.5399 28.3159 13.0833 27.1667 13.0833C26.0174 13.0833 24.9152 13.5399 24.1025 14.3525C23.2899 15.1652 22.8333 16.2674 22.8333 17.4167H18.5C18.2127 17.4167 17.9371 17.5308 17.734 17.734C17.5308 17.9371 17.4167 18.2127 17.4167 18.5V19.0417C17.4167 19.1853 17.4737 19.3231 17.5753 19.4247C17.6769 19.5263 17.8147 19.5833 17.9583 19.5833C18.102 19.5833 18.2398 19.5263 18.3413 19.4247C18.4429 19.3231 18.5 19.1853 18.5 19.0417V18.5H35.8333V35.8333H18.5V35.2917C18.5 35.148 18.4429 35.0102 18.3413 34.9087C18.2398 34.8071 18.102 34.75 17.9583 34.75C17.8147 34.75 17.6769 34.8071 17.5753 34.9087C17.4737 35.0102 17.4167 35.148 17.4167 35.2917V35.8333C17.4167 36.1207 17.5308 36.3962 17.734 36.5994C17.9371 36.8025 18.2127 36.9167 18.5 36.9167H35.8333C36.1206 36.9167 36.3962 36.8025 36.5994 36.5994C36.8025 36.3962 36.9167 36.1207 36.9167 35.8333V18.5C36.9167 18.2127 36.8025 17.9371 36.5994 17.734C36.3962 17.5308 36.1206 17.4167 35.8333 17.4167ZM27.1667 14.1667C28.0286 14.1667 28.8553 14.5091 29.4648 15.1186C30.0742 15.7281 30.4167 16.5547 30.4167 17.4167H23.9167C23.9167 16.5547 24.2591 15.7281 24.8686 15.1186C25.4781 14.5091 26.3047 14.1667 27.1667 14.1667V14.1667Z" fill="white"/>
<path d="M23.9167 27.1667C23.9167 26.0954 23.599 25.0481 23.0038 24.1573C22.4086 23.2666 21.5626 22.5723 20.5729 22.1623C19.5831 21.7523 18.494 21.6451 17.4433 21.8541C16.3925 22.0631 15.4274 22.579 14.6699 23.3365C13.9123 24.094 13.3964 25.0592 13.1874 26.1099C12.9784 27.1607 13.0857 28.2498 13.4957 29.2395C13.9056 30.2293 14.5999 31.0753 15.4907 31.6705C16.3814 32.2657 17.4287 32.5833 18.5 32.5833C19.9366 32.5833 21.3144 32.0127 22.3302 30.9968C23.346 29.981 23.9167 28.6033 23.9167 27.1667V27.1667ZM14.1667 27.1667C14.1667 26.3096 14.4208 25.4718 14.897 24.7592C15.3731 24.0466 16.0499 23.4912 16.8417 23.1632C17.6335 22.8352 18.5048 22.7494 19.3454 22.9166C20.186 23.0838 20.9581 23.4965 21.5641 24.1025C22.1702 24.7086 22.5829 25.4807 22.7501 26.3213C22.9173 27.1619 22.8315 28.0332 22.5035 28.825C22.1755 29.6168 21.6201 30.2936 20.9075 30.7697C20.1949 31.2459 19.3571 31.5 18.5 31.5C17.3507 31.5 16.2485 31.0435 15.4359 30.2308C14.6232 29.4181 14.1667 28.3159 14.1667 27.1667Z" fill="white"/>
<path d="M20.4933 26.3217C20.547 26.2682 20.5888 26.2041 20.6161 26.1334C20.6434 26.0628 20.6556 25.9872 20.6519 25.9115C20.6482 25.8359 20.6286 25.7618 20.5945 25.6942C20.5604 25.6266 20.5125 25.5668 20.4539 25.5189C20.3953 25.4709 20.3272 25.4358 20.2542 25.4157C20.1811 25.3957 20.1047 25.3912 20.0298 25.4025C19.9549 25.4139 19.8832 25.4408 19.8194 25.4815C19.7555 25.5223 19.701 25.576 19.6592 25.6392L18.1208 27.535L17.3192 26.6792C17.2701 26.6273 17.2112 26.5855 17.146 26.5563C17.0808 26.5271 17.0105 26.5111 16.9391 26.509C16.8676 26.507 16.7965 26.5191 16.7298 26.5446C16.663 26.5701 16.6019 26.6084 16.55 26.6575C16.4981 26.7066 16.4563 26.7654 16.4271 26.8306C16.3979 26.8959 16.3819 26.9662 16.3799 27.0376C16.3778 27.109 16.3899 27.1802 16.4154 27.2469C16.4409 27.3137 16.4792 27.3748 16.5283 27.4267L17.7525 28.7267C17.8024 28.7805 17.8627 28.8236 17.9297 28.8534C17.9967 28.8832 18.0691 28.899 18.1425 28.9C18.2205 28.898 18.297 28.8784 18.3664 28.8428C18.4357 28.8071 18.4962 28.7564 18.5433 28.6942L20.4933 26.3217Z" fill="white"/>
</svg>
