<svg width="50" height="50" viewBox="0 0 50 50" fill="none" xmlns="http://www.w3.org/2000/svg">
<circle cx="25" cy="25" r="24.5" stroke="white"/>
<path d="M16.875 27.1667C16.7314 27.1667 16.5936 27.2237 16.492 27.3253C16.3904 27.4269 16.3333 27.5647 16.3333 27.7083C16.3333 27.852 16.3904 27.9898 16.492 28.0913C16.5936 28.1929 16.7314 28.25 16.875 28.25H20.125C20.2687 28.25 20.4064 28.1929 20.508 28.0913C20.6096 27.9898 20.6667 27.852 20.6667 27.7083C20.6667 27.5647 20.6096 27.4269 20.508 27.3253C20.4064 27.2237 20.2687 27.1667 20.125 27.1667H16.875Z" fill="white"/>
<path d="M35.2917 15.25H14.7083C14.2774 15.25 13.864 15.4212 13.5593 15.726C13.2545 16.0307 13.0833 16.444 13.0833 16.875V28.7917C13.0833 29.2226 13.2545 29.636 13.5593 29.9407C13.864 30.2455 14.2774 30.4167 14.7083 30.4167H20.125C20.2687 30.4167 20.4064 30.3596 20.508 30.258C20.6096 30.1564 20.6667 30.0187 20.6667 29.875C20.6667 29.7313 20.6096 29.5936 20.508 29.492C20.4064 29.3904 20.2687 29.3333 20.125 29.3333H14.7083C14.5647 29.3333 14.4269 29.2763 14.3253 29.1747C14.2237 29.0731 14.1667 28.9353 14.1667 28.7917V19.5833H35.8333V28.7917C35.8333 28.9353 35.7763 29.0731 35.6747 29.1747C35.5731 29.2763 35.4353 29.3333 35.2917 29.3333H34.2083C34.0647 29.3333 33.9269 29.3904 33.8253 29.492C33.7237 29.5936 33.6667 29.7313 33.6667 29.875C33.6667 30.0187 33.7237 30.1564 33.8253 30.258C33.9269 30.3596 34.0647 30.4167 34.2083 30.4167H35.2917C35.7227 30.4167 36.136 30.2455 36.4407 29.9407C36.7455 29.636 36.9167 29.2226 36.9167 28.7917V16.875C36.9167 16.444 36.7455 16.0307 36.4407 15.726C36.136 15.4212 35.7227 15.25 35.2917 15.25ZM14.1667 18.5V16.875C14.1667 16.7313 14.2237 16.5936 14.3253 16.492C14.4269 16.3904 14.5647 16.3333 14.7083 16.3333H35.2917C35.4353 16.3333 35.5731 16.3904 35.6747 16.492C35.7763 16.5936 35.8333 16.7313 35.8333 16.875V18.5H14.1667Z" fill="white"/>
<path d="M30.4167 28.25V27.1667C30.4167 26.3047 30.0743 25.4781 29.4648 24.8686C28.8553 24.2591 28.0286 23.9167 27.1667 23.9167C26.3047 23.9167 25.4781 24.2591 24.8686 24.8686C24.2591 25.4781 23.9167 26.3047 23.9167 27.1667V28.25C23.6293 28.25 23.3538 28.3641 23.1506 28.5673C22.9475 28.7705 22.8333 29.046 22.8333 29.3333V33.6667C22.8333 33.954 22.9475 34.2295 23.1506 34.4327C23.3538 34.6359 23.6293 34.75 23.9167 34.75H30.4167C30.704 34.75 30.9795 34.6359 31.1827 34.4327C31.3859 34.2295 31.5 33.954 31.5 33.6667V29.3333C31.5 29.046 31.3859 28.7705 31.1827 28.5673C30.9795 28.3641 30.704 28.25 30.4167 28.25ZM25 27.1667C25 26.592 25.2283 26.0409 25.6346 25.6346C26.0409 25.2283 26.592 25 27.1667 25C27.7413 25 28.2924 25.2283 28.6987 25.6346C29.1051 26.0409 29.3333 26.592 29.3333 27.1667V28.25H25V27.1667ZM30.4167 34.2192V33.6667H23.9167V29.3333H30.4167V33.6667V34.2192Z" fill="white"/>
</svg>
