<svg width="40" height="40" viewBox="0 0 40 40" fill="none" xmlns="http://www.w3.org/2000/svg">
<circle cx="20" cy="20" r="19.5" stroke="#6F6967"/>
<g opacity="0.6">
<path fill-rule="evenodd" clip-rule="evenodd" d="M20 15.5C18.3431 15.5 17 16.8431 17 18.5C17 20.1569 18.3431 21.5 20 21.5C21.6569 21.5 23 20.1569 23 18.5C23 16.8431 21.6569 15.5 20 15.5ZM18.5 18.5C18.5 17.6716 19.1716 17 20 17C20.8284 17 21.5 17.6716 21.5 18.5C21.5 19.3284 20.8284 20 20 20C19.1716 20 18.5 19.3284 18.5 18.5Z" fill="#9D9390"/>
<path fill-rule="evenodd" clip-rule="evenodd" d="M20 11C15.8738 11 12.5 14.2749 12.5 18.35C12.5 21.1001 14.1472 23.7493 15.7747 25.6448C16.6012 26.6074 17.454 27.4123 18.1567 27.9819C18.507 28.2659 18.8301 28.4994 19.1018 28.6665C19.2368 28.7495 19.3714 28.8237 19.4985 28.8797C19.6016 28.9251 19.7891 29 20 29C20.2109 29 20.3984 28.9251 20.5015 28.8797C20.6286 28.8237 20.7632 28.7495 20.8982 28.6665C21.17 28.4994 21.493 28.2659 21.8433 27.9819C22.546 27.4123 23.3988 26.6074 24.2253 25.6448C25.8528 23.7493 27.5 21.1001 27.5 18.35C27.5 14.2749 24.1262 11 20 11ZM14 18.35C14 15.1349 16.6703 12.5 20 12.5C23.3297 12.5 26 15.1349 26 18.35C26 20.5499 24.6472 22.8507 23.0872 24.6677C22.32 25.5613 21.5321 26.3033 20.8988 26.8166C20.5813 27.074 20.3125 27.2658 20.1125 27.3888C20.0697 27.4151 20.0322 27.4369 20 27.4547C19.9678 27.4369 19.9303 27.4151 19.8875 27.3888C19.6875 27.2658 19.4187 27.074 19.1012 26.8166C18.4679 26.3033 17.68 25.5613 16.9128 24.6677C15.3528 22.8507 14 20.5499 14 18.35Z" fill="#9D9390"/>
</g>
</svg>
