<svg width="10" height="10" viewBox="0 0 10 10" fill="none" xmlns="http://www.w3.org/2000/svg">
<path fill-rule="evenodd" clip-rule="evenodd" d="M5 2.5C4.07952 2.5 3.33333 3.24619 3.33333 4.16667C3.33333 5.08714 4.07952 5.83333 5 5.83333C5.92047 5.83333 6.66666 5.08714 6.66666 4.16667C6.66666 3.24619 5.92047 2.5 5 2.5ZM4.16666 4.16667C4.16666 3.70643 4.53976 3.33333 5 3.33333C5.46023 3.33333 5.83333 3.70643 5.83333 4.16667C5.83333 4.6269 5.46023 5 5 5C4.53976 5 4.16666 4.6269 4.16666 4.16667Z" fill="#9D9390"/>
<path fill-rule="evenodd" clip-rule="evenodd" d="M5 0C2.70769 0 0.833328 1.81939 0.833328 4.08333C0.833328 5.61114 1.74845 7.08292 2.65261 8.13601C3.11178 8.6708 3.58553 9.11795 3.97591 9.43437C4.17057 9.59214 4.35002 9.7219 4.50098 9.81473C4.57598 9.86085 4.65075 9.90207 4.72141 9.93316C4.77869 9.95836 4.8828 10 5 10C5.11719 10 5.2213 9.95836 5.27858 9.93316C5.34924 9.90207 5.42401 9.86085 5.49901 9.81473C5.64997 9.7219 5.82942 9.59214 6.02408 9.43437C6.41446 9.11795 6.88821 8.6708 7.34738 8.13601C8.25154 7.08292 9.16666 5.61114 9.16666 4.08333C9.16666 1.81939 7.2923 0 5 0ZM1.66666 4.08333C1.66666 2.29719 3.15017 0.833333 5 0.833333C6.84982 0.833333 8.33333 2.29719 8.33333 4.08333C8.33333 5.30552 7.58178 6.58374 6.71511 7.59316C6.28886 8.08962 5.85115 8.50184 5.49935 8.78698C5.32291 8.92999 5.17359 9.03656 5.06251 9.10486C5.03873 9.11949 5.01791 9.1316 4.99999 9.14151C4.98208 9.1316 4.96126 9.11949 4.93748 9.10486C4.8264 9.03656 4.67708 8.92999 4.50064 8.78698C4.14884 8.50184 3.71113 8.08962 3.28488 7.59316C2.41821 6.58374 1.66666 5.30552 1.66666 4.08333Z" fill="#9D9390"/>
</svg>
