<svg width="14" height="18" viewBox="0 0 14 18" fill="none" xmlns="http://www.w3.org/2000/svg">
<path fill-rule="evenodd" clip-rule="evenodd" d="M7.53554 17.5211C9.14966 16.0288 13.8571 11.2958 13.8571 6.85714C13.8571 3.07005 10.7871 0 7 0C3.2129 0 0.142853 3.07005 0.142853 6.85714C0.142853 11.2958 4.85033 16.0288 6.46445 17.5211C6.77117 17.8047 7.22882 17.8047 7.53554 17.5211ZM7 9.42857C8.42016 9.42857 9.57142 8.2773 9.57142 6.85714C9.57142 5.43698 8.42016 4.28571 7 4.28571C5.57983 4.28571 4.42857 5.43698 4.42857 6.85714C4.42857 8.2773 5.57983 9.42857 7 9.42857Z" fill="white"/>
</svg>
