<?xml version="1.0" encoding="utf-8"?><svg xmlns="http://www.w3.org/2000/svg" xmlns:xlink="http://www.w3.org/1999/xlink"><symbol viewBox="0 0 512.001 512.001" id="ico_cancel" xmlns="http://www.w3.org/2000/svg"><path d="M284.286 256.002L506.143 34.144c7.811-7.811 7.811-20.475 0-28.285-7.811-7.81-20.475-7.811-28.285 0L256 227.717 34.143 5.859c-7.811-7.811-20.475-7.811-28.285 0-7.81 7.811-7.811 20.475 0 28.285l221.857 221.857L5.858 477.859c-7.811 7.811-7.811 20.475 0 28.285a19.938 19.938 0 0014.143 5.857 19.94 19.94 0 0014.143-5.857L256 284.287l221.857 221.857c3.905 3.905 9.024 5.857 14.143 5.857s10.237-1.952 14.143-5.857c7.811-7.811 7.811-20.475 0-28.285L284.286 256.002z"/></symbol><symbol viewBox="0 -53 384 384" id="ico_menu" xmlns="http://www.w3.org/2000/svg"><path d="M368 154.668H16c-8.832 0-16-7.168-16-16s7.168-16 16-16h352c8.832 0 16 7.168 16 16s-7.168 16-16 16zM368 32H16C7.168 32 0 24.832 0 16S7.168 0 16 0h352c8.832 0 16 7.168 16 16s-7.168 16-16 16zm0 245.332H16c-8.832 0-16-7.168-16-16s7.168-16 16-16h352c8.832 0 16 7.168 16 16s-7.168 16-16 16zm0 0"/></symbol><symbol fill="none" viewBox="0 0 17 17" id="ico_phone" xmlns="http://www.w3.org/2000/svg"><path fill-rule="evenodd" clip-rule="evenodd" d="M2.15 3.687s-.031-.793.472-1.82C2.978 1.141 4.361.74 4.361.74s.59-.15 1.78.997c.472.438.773 1.03.847 1.67.043.583-1.202 1.827-1.202 1.827.097.715.395 1.387.86 1.937A30.689 30.689 0 008.42 9.042c.379.356.802.82 1.364 1.192 1.105.733 1.37.666 1.37.666S12.73 9.581 13.2 9.627c.359.036.866.272 1.515.825.482.41.79.72 1.033 1.134a2 2 0 01.202.456s.063.655-.954 1.697c-1.012 1.036-2.408.765-2.408.765s-.802-.12-2.114-.737a14.46 14.46 0 01-3.918-2.803c-1.063-1.099-2.458-2.78-3.136-3.95-.854-1.471-1.27-3.327-1.27-3.327z" fill="#2A7D9E"/></symbol></svg>