<?xml version="1.0" encoding="utf-8"?><svg width="50" height="50" fill="none" xmlns="http://www.w3.org/2000/svg" viewBox="0 0 50 50"><circle cx="25" cy="25" r="24.5" stroke="#fff"/><path d="M35.833 17.417H31.5a4.334 4.334 0 00-8.667 0H18.5a1.083 1.083 0 00-1.083 1.083v.542a.542.542 0 101.083 0V18.5h17.333v17.333H18.5v-.541a.541.541 0 10-1.083 0v.541a1.083 1.083 0 001.083 1.084h17.333a1.084 1.084 0 001.084-1.084V18.5a1.083 1.083 0 00-1.084-1.083zm-8.666-3.25a3.25 3.25 0 013.25 3.25h-6.5a3.25 3.25 0 013.25-3.25z" fill="#fff"/><path d="M23.917 27.167a5.417 5.417 0 10-10.834 0 5.417 5.417 0 0010.834 0zm-9.75 0a4.333 4.333 0 118.666 0 4.333 4.333 0 01-8.666 0z" fill="#fff"/><path d="M20.493 26.322a.54.54 0 10-.834-.683l-1.538 1.896-.802-.856a.545.545 0 00-.904.568.544.544 0 00.113.18l1.225 1.3a.542.542 0 00.39.173.52.52 0 00.4-.206l1.95-2.372z" fill="#fff"/></svg>