<?xml version="1.0" encoding="utf-8"?><svg width="40" height="40" fill="none" xmlns="http://www.w3.org/2000/svg" viewBox="0 0 40 40"><circle cx="20" cy="20" r="19.5" stroke="#6F6967"/><g opacity=".6" fill-rule="evenodd" clip-rule="evenodd" fill="#9D9390"><path d="M20 15.5a3 3 0 100 6 3 3 0 000-6zm-1.5 3a1.5 1.5 0 113 0 1.5 1.5 0 01-3 0z"/><path d="M20 11c-4.126 0-7.5 3.275-7.5 7.35 0 2.75 1.647 5.4 3.275 7.295a19.06 19.06 0 002.382 2.337c.35.284.673.517.945.684.135.084.27.158.396.214.104.045.291.12.502.12.21 0 .398-.075.502-.12.127-.056.261-.13.396-.213.272-.168.595-.401.945-.685a19.06 19.06 0 002.382-2.337C25.853 23.749 27.5 21.1 27.5 18.35c0-4.075-3.374-7.35-7.5-7.35zm-6 7.35c0-3.215 2.67-5.85 6-5.85s6 2.635 6 5.85c0 2.2-1.353 4.5-2.913 6.318a17.557 17.557 0 01-2.188 2.149c-.318.257-.587.449-.787.572a2.85 2.85 0 01-.112.066 2.85 2.85 0 01-.113-.066 7.838 7.838 0 01-.786-.572 17.557 17.557 0 01-2.188-2.15C15.353 22.852 14 20.55 14 18.35z"/></g></svg>