<svg width="136" height="34" viewBox="0 0 136 34" fill="none" xmlns="http://www.w3.org/2000/svg">
    <path fill-rule="evenodd" clip-rule="evenodd" d="M134.233 16.7979C133.056 17.5659 131.333 17.9498 129.064 17.9498H127.882V22.6157C127.882 23.3217 128.032 23.82 128.331 24.1109C128.631 24.4018 129.147 24.5472 129.879 24.5472H130.104V25.2338H125.909H121.801V25.2351H117.615H113.429V24.5485H113.653C114.377 24.5485 114.887 24.4029 115.186 24.1121C115.485 23.8211 115.634 23.3227 115.634 22.6166V14.1675L109.939 21.7321V22.6166C109.939 23.3227 110.088 23.8211 110.387 24.1121C110.686 24.4029 111.201 24.5485 111.932 24.5485H112.156V25.2351H107.97H103.394V25.2364H99.3232H95.2525V24.5497H95.4704C96.1737 24.5497 96.6705 24.4042 96.9611 24.1133C97.2515 23.8223 97.3968 23.3239 97.3968 22.6178V11.6318H97.3903L91.5489 25.2364H91.2393H90.9297L85.0834 10.8171H85.0817V22.0359C85.0817 22.9049 85.2268 23.5276 85.5174 23.9038C85.8079 24.2802 86.3086 24.4955 87.0195 24.5497H87.2374V25.2364H84.6H81.9627V24.5497H82.1806C82.8839 24.4955 83.3807 24.2802 83.6713 23.9038C83.9617 23.5276 84.107 22.9049 84.107 22.0359V11.3059C84.107 10.7241 83.9617 10.3012 83.6713 10.0374C83.3807 9.7737 82.88 9.61083 82.1691 9.54861H81.9513V8.86196H85.0243H88.0974L92.6837 20.1739H92.6841L97.5574 8.86196H100.47H103.382V9.54861H103.165C102.461 9.61083 101.964 9.78718 101.674 10.0782C101.383 10.369 101.238 10.8366 101.238 11.4804V22.6178C101.238 23.3239 101.383 23.8223 101.674 24.1133C101.964 24.4042 102.465 24.5497 103.176 24.5497H103.198V24.5485H104.008C104.731 24.5485 105.242 24.4029 105.541 24.1121C105.84 23.8211 105.989 23.3227 105.989 22.6166V11.4792C105.989 10.7733 105.84 10.2747 105.541 9.98377C105.242 9.69279 104.728 9.54735 103.996 9.54735H103.772V8.86071H107.958H112.144V9.54735H111.92C111.197 9.54735 110.686 9.69279 110.387 9.98377C110.088 10.2747 109.939 10.7733 109.939 11.4792V19.9282L115.634 12.3637V11.4792C115.634 10.7733 115.485 10.2747 115.186 9.98377C114.887 9.69279 114.373 9.54735 113.642 9.54735H113.418V8.86071H117.603H121.789V8.86235H125.897H129.064C131.333 8.86235 133.056 9.24839 134.233 10.0202C135.411 10.7921 136 11.9225 136 13.4119C136 14.9012 135.411 16.03 134.233 16.7979ZM123.924 11.4804C123.924 10.7746 123.774 10.2761 123.475 9.98521C123.175 9.69433 122.66 9.5489 121.927 9.5489H121.702V9.54735H121.565C120.842 9.54735 120.331 9.69279 120.032 9.98377C119.734 10.2747 119.584 10.7733 119.584 11.4792V22.6166C119.584 23.3227 119.734 23.8211 120.032 24.1121C120.331 24.4029 120.846 24.5485 121.577 24.5485H121.714V24.5472H121.939C122.663 24.5472 123.175 24.4 123.475 24.105C123.774 23.8182 123.924 23.3217 123.924 22.6157V11.4804ZM131.149 10.7357C130.689 10.1464 129.993 9.85143 129.064 9.85143C128.591 9.85143 128.276 9.92906 128.119 10.0841C127.961 10.2394 127.882 10.5495 127.882 11.0149V16.9608H129.064C130.057 16.9608 130.767 16.6855 131.197 16.1347C131.626 15.5839 131.841 14.6763 131.841 13.4119C131.841 12.2175 131.61 11.3254 131.149 10.7357ZM63.2022 34C53.6581 34 45.921 26.3888 45.921 17C45.921 7.61118 53.6581 0 63.2022 0C72.7464 0 80.4835 7.61118 80.4835 17C80.4835 26.3888 72.7464 34 63.2022 34ZM71.9178 26.3206C69.7465 24.8372 67.1421 23.9252 64.3282 23.8051V29.617C67.2453 29.3683 69.8836 28.1623 71.9178 26.3206ZM63.0554 29.6639V23.805C60.0388 23.9338 57.2626 24.9726 55.0031 26.6497L54.9668 26.7352C57.1639 28.5357 59.9801 29.63 63.0554 29.6639ZM53.9722 25.8284L57.1246 18.3966H50.4053C50.7261 21.2741 52.0272 23.861 53.9722 25.8284ZM50.3269 17C50.3269 17.0484 50.3282 17.0963 50.3288 17.1445H57.6557L60.2105 11.1217C58.0443 10.4392 56.1601 9.13704 54.7732 7.42712C52.0499 9.74914 50.3269 13.1763 50.3269 17ZM63.0554 4.33611C60.3451 4.36597 57.8364 5.22011 55.7749 6.65475C57.0286 8.19708 58.7381 9.36503 60.7027 9.96104L63.0554 4.4147V4.33611ZM63.0554 7.66618L61.9567 10.2563C62.3167 10.3175 62.6833 10.3599 63.0554 10.3825V7.66618ZM63.0554 11.637C62.5109 11.6075 61.9768 11.5404 61.4553 11.4384L59.0349 17.1445H63.0554V11.637ZM58.5038 18.3966L55.8806 24.5807C58.009 23.3788 60.4505 22.6531 63.0554 22.551V18.3966H58.5038ZM64.4432 4.39419L64.3282 4.66542V10.3822C67.0639 10.2153 69.5047 8.98034 71.2267 7.09608C69.3296 5.60711 66.9951 4.6344 64.4432 4.39419ZM76.0775 17C76.0775 13.4405 74.5842 10.225 72.1809 7.9246C70.2255 10.0686 67.444 11.4682 64.3282 11.6369V17.1445H76.0756C76.0762 17.0963 76.0775 17.0484 76.0775 17ZM64.3282 18.3966V22.5519C67.4895 22.676 70.4101 23.7182 72.8225 25.4158C74.5508 23.5054 75.7002 21.0771 75.9992 18.3966H64.3282ZM42.3703 10.8974C41.6225 10.22 40.5718 9.88129 39.2183 9.88129H39.0412V22.621C39.0412 23.3255 39.1906 23.8229 39.4898 24.1132C39.7888 24.4035 40.3043 24.5488 41.0363 24.5488H41.2606V25.2339H37.1169H32.9732V24.5488H33.1857C33.8862 24.5488 34.3781 24.4018 34.6614 24.1074C34.9447 23.8211 35.0863 23.3255 35.0863 22.621V9.88129H34.992C33.6382 9.88129 32.5876 10.22 31.8399 10.8974C31.0921 11.5749 30.6435 12.5949 30.4941 13.9575H29.7031V11.4258V8.89413H37.0637H44.4244V11.4258V13.9575H43.7161C43.5665 12.5949 43.1179 11.5749 42.3703 10.8974ZM27.6945 17.3564C28.9445 18.1556 29.5698 19.2689 29.5698 20.6964C29.5698 22.124 28.9638 23.2374 27.7519 24.0364C26.54 24.8356 24.8565 25.2351 22.7013 25.2351H19.2614H15.1886V25.235H12.379H8.49279V24.5637H8.73482C9.44957 24.5637 9.91817 24.4069 10.1412 24.0929C10.364 23.7789 10.341 23.3081 10.072 22.6801L9.19706 20.5811H3.93464L3.11063 22.6801C2.87231 23.2703 2.87231 23.7071 3.11063 23.9907C3.34875 24.2745 3.87893 24.4654 4.70138 24.5637H4.95497V25.235H2.47754H0V24.5637H0.103785C0.472616 24.5335 0.791413 24.3741 1.06057 24.0858C1.32943 23.8052 1.60231 23.3348 1.87901 22.6748L7.63107 8.86071H7.94233H8.25359L14.2593 22.6748C14.559 23.3652 14.8491 23.8525 15.1297 24.137C15.3307 24.3409 15.5606 24.4713 15.819 24.5291C16.3101 24.4807 16.6718 24.3401 16.9028 24.1062C17.1943 23.8193 17.3401 23.3227 17.3401 22.6166V11.4794C17.3401 10.7735 17.1943 10.2748 16.9028 9.98396C16.6113 9.69299 16.1091 9.54755 15.3957 9.54755H15.1772V8.8609H19.2614H22.2641C24.3273 8.8609 25.9379 9.20822 27.0962 9.90248C28.2542 10.5969 28.8335 11.5648 28.8335 12.8061C28.8335 14.0397 28.2542 15.0056 27.0962 15.7039C26.5823 16.0142 25.984 16.2508 25.3014 16.4137C26.2294 16.6078 27.0272 16.922 27.6945 17.3564ZM6.48003 14.1292H6.47171L4.35517 19.5115H8.75714L6.48003 14.1292ZM24.174 10.6313C23.8211 10.1726 23.2919 9.9123 22.5863 9.85008C22.0263 9.80356 21.6543 9.87358 21.4703 10.06C21.2862 10.2465 21.1942 10.6391 21.1942 11.2375V16.0995H21.5509C22.6553 16.0995 23.4702 15.8568 23.9956 15.3709C24.5209 14.8851 24.7837 14.1292 24.7837 13.103C24.7837 11.9838 24.5804 11.1599 24.174 10.6313ZM24.5709 17.9441C23.9381 17.3351 22.9544 17.0305 21.6199 17.0305H21.1942V22.8377C21.1942 23.4041 21.2805 23.7804 21.453 23.9665C21.6257 24.1528 21.9726 24.2459 22.4942 24.2459H22.7013C23.6678 24.2459 24.3791 23.9665 24.8355 23.408C25.2917 22.8493 25.5201 21.9765 25.5201 20.7895C25.5201 19.5017 25.2036 18.5532 24.5709 17.9441Z" fill="#2A7D9E"/>
</svg>